# xmcd CD database file
#
# Track frame offsets:
#	150
#	15287
#	30185
#	46012
#	65605
#	80117
#	103391
#	116466
#	137031
#	155146
#	171871
#	187178
#
# Disc length: 2717 seconds
#
# Revision: 0
# Processed by: cddbd v1.5.2PL0 Copyright (c) Steve Scherf et al.
# Submitted via: CDex 1.51
#
DISCID=9d0a9b0c
DTITLE=The Rosemberg Trio - Suenos Gitanos
DYEAR=2001
DGENRE=Rhythmic Soul
TTITLE0=Moonflower
TTITLE1=Party in The Ghetto
TTITLE2=Mediterranean Sundance
TTITLE3=Bolero Triste
TTITLE4=Pepito
TTITLE5=The shadow of your smile
TTITLE6=Gitano
TTITLE7=Moonlight Serenade
TTITLE8=Les yeux noirs
TTITLE9=Troublante Bolero
TTITLE10=Just Relax
TTITLE11=Tocata para Billy Blanco
EXTD=YEAR: 2001
EXTT0=
EXTT1=
EXTT2=
EXTT3=
EXTT4=
EXTT5=
EXTT6=
EXTT7=
EXTT8=
EXTT9=
EXTT10=
EXTT11=
PLAYORDER=
